<?xml version="1.0" encoding="iso-8859-1"?>
<!-- Generator: Adobe Illustrator 22.1.0, SVG Export Plug-In . SVG Version: 6.00 Build 0)  -->
<svg version="1.1" id="&#xB808;&#xC774;&#xC5B4;_1" xmlns="http://www.w3.org/2000/svg" xmlns:xlink="http://www.w3.org/1999/xlink"
	 x="0px" y="0px" viewBox="0 0 700 700" style="enable-background:new 0 0 700 700;" xml:space="preserve">
<linearGradient id="SVGID_1_" gradientUnits="userSpaceOnUse" x1="69.0135" y1="347.5427" x2="279.261" y2="349.4894">
	<stop  offset="0" style="stop-color:#0C58B0"/>
	<stop  offset="0.2414" style="stop-color:#116CBB"/>
	<stop  offset="0.7347" style="stop-color:#1A8FCF"/>
	<stop  offset="1" style="stop-color:#1E9CD7"/>
</linearGradient>
<path style="fill:url(#SVGID_1_);" d="M367.822,190.927c-13.845,0-27.343,1.365-40.533,3.64v191.46
	c11.942-9.859,27.254-15.782,43.949-15.782c38.151,0,69.078,30.927,69.078,69.077c0,12.288-3.244,23.803-8.868,33.8
	c-11.839,21.041-34.347,35.278-60.21,35.278c-38.151,0-69.078-30.927-69.078-69.078c0-0.201,0.029-0.395,0.03-0.595h-0.03V200.086
	c-0.004,0.001-0.007,0.002-0.011,0.003V18.719H122.646v427.6h0.516c5.396,130.633,112.702,234.961,244.661,234.961
	c133.57,0,241.979-106.867,244.902-239.735c0.04-1.827,0.275-3.604,0.275-5.441C612.999,300.696,503.229,190.927,367.822,190.927z"
	/>
<g>
	<linearGradient id="SVGID_2_" gradientUnits="userSpaceOnUse" x1="314.7955" y1="256.0201" x2="444.1943" y2="337.7456">
		<stop  offset="0" style="stop-color:#0C58B0"/>
		<stop  offset="0.2414" style="stop-color:#116CBB"/>
		<stop  offset="0.7347" style="stop-color:#1A8FCF"/>
		<stop  offset="1" style="stop-color:#1E9CD7"/>
	</linearGradient>
	<path style="fill:url(#SVGID_2_);" d="M612.999,436.104c0-135.408-109.77-245.177-245.177-245.177
		c-13.845,0-27.343,1.365-40.533,3.64v191.46c11.942-9.859,27.254-15.782,43.949-15.782c38.151,0,69.078,30.927,69.078,69.077
		c0,12.288-3.244,23.803-8.868,33.8l181.276-31.577C612.764,439.718,612.999,437.941,612.999,436.104z"/>
	<linearGradient id="SVGID_3_" gradientUnits="userSpaceOnUse" x1="69.0366" y1="347.5429" x2="279.1881" y2="349.4887">
		<stop  offset="0" style="stop-color:#0C58B0"/>
		<stop  offset="0.2414" style="stop-color:#116CBB"/>
		<stop  offset="0.7347" style="stop-color:#1A8FCF"/>
		<stop  offset="1" style="stop-color:#1E9CD7"/>
	</linearGradient>
	<path style="fill:url(#SVGID_3_);" d="M431.448,473.122c-11.839,21.041-34.347,35.278-60.21,35.278
		c-38.151,0-69.078-30.927-69.078-69.078c0-0.201,0.029-0.395,0.03-0.595h-0.03V200.086c-0.004,0.001-0.007,0.002-0.011,0.003
		V18.719H122.646v427.6h0.516c5.396,130.633,112.702,234.961,244.661,234.961c133.57,0,241.979-106.867,244.902-239.735
		L431.448,473.122z"/>
</g>
<g>
</g>
<g>
</g>
<g>
</g>
<g>
</g>
<g>
</g>
<g>
</g>
<g>
</g>
<g>
</g>
<g>
</g>
<g>
</g>
<g>
</g>
<g>
</g>
<g>
</g>
<g>
</g>
<g>
</g>
</svg>
