<svg width="423" height="375" viewBox="0 0 423 375" fill="none" xmlns="http://www.w3.org/2000/svg">
<rect y="0.249268" width="382.078" height="374.751" rx="75" fill="#3370FF"/>
<path d="M230.741 107.548L225.248 107.304C215.808 107.304 206.49 108.484 197.294 110.844C188.179 113.204 180.285 116.256 173.612 119.999C166.939 123.661 161.527 127.852 157.377 132.572C153.308 137.211 151.273 141.768 151.273 146.244C151.273 156.173 157.784 164.026 170.805 169.804C170.805 173.222 170.398 177.25 169.584 181.889C168.77 186.446 167.997 189.213 167.265 190.189C154.325 184.9 144.641 178.471 138.212 170.902C131.864 163.334 128.69 155.359 128.69 146.977C128.69 131.758 136.951 118.575 153.471 107.426C169.991 96.1953 192.248 89.4001 220.243 87.04C233.101 86.1449 245.878 85.6973 258.573 85.6973C271.269 85.6973 281.319 85.738 288.725 85.8193C296.13 85.9007 301.623 85.9414 305.204 85.9414L287.992 111.698C280.342 111.698 271.635 111.169 261.869 110.111C252.104 108.972 245.39 108.28 241.728 108.036C240.019 116.988 237.781 129.236 235.014 144.779C232.247 160.323 230.497 170.048 229.765 173.954C236.682 173.14 243.762 172.733 251.005 172.733C258.329 172.733 266.752 172.978 276.273 173.466C279.285 173.466 280.79 174.89 280.79 177.738C280.79 180.587 279.488 183.638 276.884 186.894C274.361 190.149 271.553 191.776 268.461 191.776C249.337 191.776 235.176 192.183 225.98 192.997C220.04 221.806 213.367 243.249 205.961 257.328C199.532 269.535 192.33 278.324 184.354 283.695C175.077 289.88 164.213 292.973 151.762 292.973C136.544 292.973 126.249 286.788 120.878 274.418C119.494 271.244 118.803 268.111 118.803 265.019C118.803 252.323 127.47 245.976 144.804 245.976C143.909 250.858 143.461 256.27 143.461 262.211C143.461 268.07 144.438 272.587 146.391 275.761C148.344 278.935 151.599 280.603 156.156 280.766C160.714 280.928 164.945 278.731 168.852 274.174C172.758 269.617 176.42 263.065 179.838 254.521C185.616 240.035 191.353 221.114 197.05 197.758L186.552 200.81C186.145 200.81 185.412 200.85 184.354 200.932C183.297 200.932 182.198 200.484 181.059 199.589C180.001 198.694 179.472 197.229 179.472 195.194C179.472 193.16 179.838 191.369 180.57 189.823C181.628 187.707 183.785 185.958 187.04 184.574C190.295 183.109 195.015 181.4 201.2 179.447C202.421 174.402 203.479 169.804 204.374 165.653C205.351 161.422 206.205 157.719 206.938 154.545C207.67 151.371 208.28 148.848 208.769 146.977C209.257 145.105 209.786 142.908 210.355 140.385C211.007 137.862 211.576 135.827 212.064 134.281C212.553 132.654 213.082 130.985 213.651 129.276C214.791 125.94 215.808 123.498 216.703 121.952C221.016 115.523 225.696 110.722 230.741 107.548Z" fill="#FAF0F0"/>
<ellipse cx="89.4393" cy="237.288" rx="10.4393" ry="11.2877" fill="white"/>
<ellipse cx="89.4393" cy="285.825" rx="10.4393" ry="11.2877" fill="white"/>
</svg>
