<svg width="488" height="145" viewBox="0 0 488 145" fill="none" xmlns="http://www.w3.org/2000/svg">
<path d="M15.472 116.528C12.496 116.528 9.664 116.096 6.976 115.232C4.288 114.464 1.984 112.736 0.0640002 110.048C1.216 104.576 2.656 98.576 4.384 92.048C6.208 85.424 8.128 78.752 10.144 72.032C12.16 65.312 14.128 58.928 16.048 52.88C18.064 46.736 19.84 41.36 21.376 36.752C22.912 32.144 24.112 28.736 24.976 26.528C25.36 25.472 26.08 23.888 27.136 21.776C28.192 19.568 29.488 17.552 31.024 15.728C32.56 13.904 34.288 12.992 36.208 12.992C37.552 12.992 38.896 13.472 40.24 14.432C37.264 21.344 34.24 28.976 31.168 37.328C28.192 45.68 25.312 54.32 22.528 63.248C19.744 72.08 17.2 80.72 14.896 89.168C12.592 97.616 10.672 105.296 9.136 112.208C11.44 112.592 13.504 112.784 15.328 112.784C21.472 112.784 27.376 111.344 33.04 108.464C38.8 105.68 44.128 101.84 49.024 96.944C54.016 91.952 58.384 86.288 62.128 79.952C65.872 73.52 68.752 66.752 70.768 59.648C72.88 52.448 73.936 45.296 73.936 38.192C73.936 26.48 71.2 17.888 65.728 12.416C60.256 6.944 53.152 4.208 44.416 4.208C38.176 4.208 32.56 5.456 27.568 7.95199C22.576 10.448 18.64 13.808 15.76 18.032C12.88 22.256 11.44 27.008 11.44 32.288C11.44 34.4 11.68 36.176 12.16 37.616C8.992 37.616 6.736 36.848 5.392 35.312C4.144 33.68 3.52 31.76 3.52 29.552C3.52 26.192 4.672 22.832 6.976 19.472C9.376 16.016 12.64 12.848 16.768 9.96799C20.992 7.08799 25.84 4.784 31.312 3.05599C36.784 1.232 42.592 0.319996 48.736 0.319996C57.376 0.319996 64.288 2.096 69.472 5.648C74.752 9.104 78.592 13.808 80.992 19.76C83.392 25.712 84.592 32.384 84.592 39.776C84.592 48.128 83.296 56.144 80.704 63.824C78.112 71.408 74.512 78.416 69.904 84.848C65.392 91.184 60.208 96.752 54.352 101.552C48.496 106.256 42.208 109.904 35.488 112.496C28.864 115.184 22.192 116.528 15.472 116.528ZM148.454 111.056C142.598 111.056 138.23 109.28 135.35 105.728C132.566 102.176 131.174 97.904 131.174 92.912C127.046 98.384 122.294 102.656 116.918 105.728C111.542 108.8 106.118 110.336 100.646 110.336C94.7898 110.336 90.3738 108.704 87.3978 105.44C84.5177 102.272 83.0777 98.336 83.0777 93.632C83.0777 89.312 84.1337 84.752 86.2458 79.952C88.4538 75.152 91.3338 70.64 94.8858 66.416C98.5338 62.192 102.518 58.784 106.838 56.192C111.158 53.504 115.43 52.16 119.654 52.16C121.862 52.16 123.878 52.736 125.702 53.888C127.622 55.04 128.582 57.392 128.582 60.944C128.582 64.592 127.478 68.048 125.27 71.312C123.158 74.48 120.326 77.312 116.774 79.808C113.318 82.304 109.478 84.368 105.254 86C101.126 87.536 96.9978 88.496 92.8698 88.88C92.6778 89.84 92.5338 90.752 92.4378 91.616C92.3418 92.48 92.2938 93.296 92.2938 94.064C92.2938 97.04 93.0618 99.824 94.5977 102.416C96.2298 104.912 99.2538 106.16 103.67 106.16C108.758 106.16 113.798 104.384 118.79 100.832C123.782 97.184 128.15 92.72 131.894 87.44C132.758 83.504 134.294 79.568 136.502 75.632C138.71 71.696 141.35 68.144 144.422 64.976C147.59 61.712 150.998 59.12 154.646 57.2C158.294 55.184 161.99 54.176 165.734 54.176C167.942 54.176 169.958 54.752 171.782 55.904C173.702 57.056 174.662 59.408 174.662 62.96C174.662 67.856 172.982 72.176 169.622 75.92C166.358 79.568 162.134 82.496 156.95 84.704C151.766 86.912 146.438 88.304 140.966 88.88C140.774 89.84 140.63 90.752 140.534 91.616C140.438 92.48 140.39 93.296 140.39 94.064C140.39 95.984 140.678 97.952 141.254 99.968C141.926 101.984 143.03 103.616 144.566 104.864C146.198 106.208 148.502 106.88 151.478 106.88C155.606 106.88 159.734 105.68 163.862 103.28C167.99 100.784 171.83 97.568 175.382 93.632C178.934 89.6 181.91 85.28 184.31 80.672L186.038 81.968C183.446 87.728 180.086 92.816 175.958 97.232C171.926 101.552 167.51 104.912 162.71 107.312C158.006 109.808 153.254 111.056 148.454 111.056ZM93.5898 86.144C96.1818 85.28 99.1098 84.032 102.374 82.4C105.638 80.672 108.758 78.656 111.734 76.352C114.806 74.048 117.302 71.504 119.222 68.72C121.238 65.936 122.246 63.008 122.246 59.936C122.246 58.88 122.054 58.064 121.67 57.488C121.286 56.912 120.47 56.624 119.222 56.624C116.918 56.624 114.47 57.536 111.878 59.36C109.286 61.088 106.79 63.392 104.39 66.272C101.99 69.152 99.8298 72.32 97.9098 75.776C95.9898 79.232 94.5498 82.688 93.5898 86.144ZM141.686 86.144C144.278 85.28 147.11 84.128 150.182 82.688C153.254 81.248 156.182 79.568 158.966 77.648C161.75 75.632 164.054 73.376 165.878 70.88C167.702 68.288 168.614 65.456 168.614 62.384C168.614 61.328 168.374 60.464 167.894 59.792C167.414 59.024 166.55 58.64 165.302 58.64C162.23 58.64 159.11 59.984 155.942 62.672C152.87 65.36 150.038 68.816 147.446 73.04C144.95 77.168 143.03 81.536 141.686 86.144ZM172.209 144.32C171.441 144.32 170.721 143.888 170.049 143.024C169.281 142.256 168.705 141.392 168.321 140.432C167.937 139.568 167.745 139.04 167.745 138.848C169.089 134.144 170.433 129.92 171.777 126.176C173.025 122.528 174.321 118.736 175.665 114.8C176.913 110.96 178.161 106.448 179.409 101.264C180.657 95.984 181.953 89.456 183.297 81.68C184.641 73.904 185.985 64.256 187.329 52.736C187.425 51.872 187.617 51.248 187.905 50.864C188.193 50.48 188.913 50.288 190.065 50.288C192.561 50.288 194.337 51.008 195.393 52.448C196.449 53.792 196.977 55.28 196.977 56.912C196.977 58.256 196.689 60.656 196.113 64.112C195.537 67.568 194.721 71.648 193.665 76.352C195.297 73.184 197.313 69.968 199.713 66.704C202.209 63.44 205.041 60.704 208.209 58.496C211.377 56.288 214.833 55.184 218.577 55.184C222.801 55.184 226.257 56.72 228.945 59.792C231.729 62.768 233.121 66.704 233.121 71.6C233.121 75.344 232.257 79.328 230.529 83.552C228.897 87.68 226.545 91.616 223.473 95.36C220.497 99.008 216.945 101.984 212.817 104.288C208.689 106.592 204.129 107.744 199.137 107.744C196.641 107.744 194.625 107.456 193.089 106.88C191.553 106.304 190.785 105.728 190.785 105.152C190.785 104.768 191.121 104.528 191.793 104.432C192.561 104.432 193.425 104.432 194.385 104.432C198.225 104.432 201.873 103.52 205.329 101.696C208.881 99.776 212.049 97.28 214.833 94.208C217.617 91.136 219.777 87.728 221.313 83.984C222.945 80.24 223.761 76.544 223.761 72.896C223.761 69.824 223.089 67.232 221.745 65.12C220.497 62.912 218.433 61.808 215.553 61.808C213.057 61.808 210.561 62.624 208.065 64.256C205.665 65.792 203.361 67.808 201.153 70.304C199.041 72.704 197.121 75.248 195.393 77.936C193.761 80.528 192.513 82.88 191.649 84.992C189.921 92.192 188.193 99.104 186.465 105.728C184.737 112.448 183.057 118.496 181.425 123.872C179.889 129.344 178.497 133.808 177.249 137.264C175.905 140.72 174.801 142.832 173.937 143.6C173.457 144.08 172.881 144.32 172.209 144.32Z" fill="#3370FF"/>
<path d="M259.419 116.528C255.003 116.144 252.267 114.944 251.211 112.928C250.155 110.912 249.627 108.32 249.627 105.152C249.627 101.696 250.347 97.472 251.787 92.48C253.227 87.392 255.003 81.872 257.115 75.92C259.323 69.968 261.531 64.016 263.739 58.064C262.011 58.16 260.043 58.352 257.835 58.64C255.723 58.928 252.363 59.408 247.755 60.08C247.947 56.432 249.819 53.888 253.371 52.448C257.019 50.912 261.435 50.096 266.619 50C269.307 42.608 272.043 35.408 274.827 28.4C277.707 21.296 280.539 14.816 283.323 8.96C282.363 8.864 281.403 8.816 280.443 8.816C279.579 8.71999 278.667 8.67199 277.707 8.67199C271.563 8.67199 266.811 9.29599 263.451 10.544C260.091 11.792 257.787 13.712 256.539 16.304C255.291 18.896 254.667 22.208 254.667 26.24C254.667 30.176 255.291 33.968 256.539 37.616C253.275 37.04 250.875 35.792 249.339 33.872C247.803 31.856 247.035 29.36 247.035 26.384C247.035 21.392 248.811 17.024 252.363 13.28C255.915 9.44 260.667 6.464 266.619 4.352C272.667 2.144 279.339 1.04 286.635 1.04C291.723 1.04 296.619 1.424 301.323 2.192C306.123 2.86399 310.779 3.19999 315.291 3.19999C319.131 3.19999 322.683 2.71999 325.947 1.75999C322.395 5.79199 319.419 8.47999 317.019 9.82399C314.619 11.168 312.171 11.84 309.675 11.84C307.467 11.84 304.587 11.552 301.035 10.976C297.579 10.304 293.643 9.77599 289.227 9.392C287.979 12.56 286.587 16.4 285.051 20.912C283.515 25.328 281.931 30.08 280.299 35.168C278.667 40.16 277.035 45.152 275.403 50.144C280.203 50.432 284.715 50.864 288.939 51.44C293.259 52.016 297.147 52.352 300.603 52.448C299.835 53.6 298.923 54.512 297.867 55.184C296.907 55.76 295.515 56.192 293.691 56.48C291.867 56.768 289.323 57.008 286.059 57.2C282.891 57.296 278.619 57.392 273.243 57.488C272.667 59.504 271.947 61.904 271.083 64.688C270.219 67.472 269.451 70.112 268.779 72.608C268.107 75.104 267.579 76.928 267.195 78.08C265.083 85.472 263.259 92.384 261.723 98.816C260.283 105.248 259.515 111.152 259.419 116.528ZM318.952 108.32C314.824 108.32 311.848 106.88 310.024 104C308.296 101.216 307.432 97.712 307.432 93.488C307.432 88.88 308.296 83.408 310.024 77.072C311.752 70.736 314.008 64.064 316.792 57.056C319.672 50.048 322.792 43.232 326.152 36.608C329.512 29.888 332.872 23.792 336.232 18.32C339.592 12.848 342.664 8.48 345.448 5.21599C348.328 1.95199 350.584 0.319996 352.216 0.319996C353.272 0.319996 354.136 0.943996 354.808 2.192C355.48 3.34399 356.008 4.78399 356.392 6.51199C356.776 8.144 356.968 9.632 356.968 10.976C356.968 13.568 356.296 16.976 354.952 21.2C353.704 25.328 351.88 29.984 349.48 35.168C347.176 40.256 344.392 45.44 341.128 50.72C337.96 55.904 334.456 60.896 330.616 65.696C326.872 70.496 322.888 74.624 318.664 78.08C318.088 80.672 317.608 83.216 317.224 85.712C316.936 88.112 316.792 90.416 316.792 92.624C316.792 100.016 318.904 103.712 323.128 103.712C325.72 103.712 328.264 102.56 330.76 100.256C333.352 97.952 335.752 95.072 337.96 91.616C340.264 88.064 342.232 84.416 343.864 80.672L346.024 81.824C342.184 89.984 338.008 96.464 333.496 101.264C328.984 105.968 324.136 108.32 318.952 108.32ZM319.96 73.184C323.32 69.824 326.584 65.984 329.752 61.664C332.92 57.248 335.848 52.688 338.536 47.984C341.32 43.28 343.768 38.72 345.88 34.304C347.992 29.888 349.624 25.952 350.776 22.496C351.928 18.944 352.504 16.208 352.504 14.288C352.504 13.328 352.36 12.704 352.072 12.416C351.88 12.128 351.688 11.984 351.496 11.984C350.728 11.984 349.384 13.232 347.464 15.728C345.64 18.128 343.48 21.392 340.984 25.52C338.488 29.648 335.944 34.352 333.352 39.632C330.76 44.912 328.264 50.432 325.864 56.192C323.56 61.952 321.592 67.616 319.96 73.184ZM350.967 108.608C346.839 108.608 343.911 107.312 342.183 104.72C340.455 102.224 339.591 99.152 339.591 95.504C339.591 92.528 340.071 89.456 341.031 86.288C341.991 83.12 343.239 80.144 344.775 77.36C346.407 74.576 348.183 72.32 350.103 70.592C352.119 68.864 354.135 68 356.151 68C357.015 68 358.023 68.24 359.175 68.72C358.311 69.488 357.255 70.928 356.007 73.04C354.855 75.056 353.751 77.408 352.695 80.096C351.639 82.688 350.727 85.28 349.959 87.872C349.287 90.464 348.951 92.672 348.951 94.496C348.951 97.376 349.431 99.488 350.391 100.832C351.351 102.08 352.599 102.704 354.135 102.704C356.151 102.704 358.551 101.648 361.335 99.536C364.119 97.328 366.855 94.544 369.543 91.184C366.855 88.976 364.743 86.096 363.207 82.544C361.767 78.896 361.047 75.2 361.047 71.456C361.047 68.288 361.575 65.312 362.631 62.528C363.783 59.744 365.415 57.536 367.527 55.904C369.639 54.176 372.183 53.312 375.159 53.312C379.095 53.312 381.735 54.368 383.079 56.48C384.423 58.592 385.095 61.232 385.095 64.4C385.095 68.144 384.183 72.32 382.359 76.928C380.535 81.44 378.231 85.808 375.447 90.032C377.175 90.992 378.999 91.472 380.919 91.472C383.127 91.472 385.815 90.752 388.983 89.312C392.151 87.776 394.599 85.04 396.327 81.104L398.055 82.544C396.135 87.056 393.399 90.272 389.847 92.192C386.391 94.016 383.079 94.928 379.911 94.928C377.319 94.928 375.015 94.448 372.999 93.488C369.735 97.808 366.135 101.408 362.199 104.288C358.359 107.168 354.615 108.608 350.967 108.608ZM372.135 87.44C374.535 83.888 376.503 80.192 378.039 76.352C379.671 72.416 380.487 68.72 380.487 65.264C380.487 62.48 380.055 60.464 379.191 59.216C378.423 57.872 377.415 57.2 376.167 57.2C374.247 57.2 372.279 58.592 370.263 61.376C368.247 64.16 367.239 67.664 367.239 71.888C367.239 74.672 367.623 77.504 368.391 80.384C369.255 83.168 370.503 85.52 372.135 87.44ZM434.233 109.616C431.257 109.616 429.193 108.224 428.041 105.44C426.985 102.752 426.457 99.488 426.457 95.648C426.457 93.728 426.553 91.664 426.745 89.456C426.937 87.152 427.177 84.896 427.465 82.688C425.353 86.912 423.049 90.992 420.553 94.928C418.153 98.864 415.609 102.08 412.921 104.576C410.233 107.072 407.401 108.32 404.425 108.32C401.257 108.32 398.665 106.88 396.649 104C394.633 101.12 393.625 97.712 393.625 93.776C393.625 90.992 394.057 87.776 394.921 84.128C395.881 80.48 397.033 76.88 398.377 73.328C399.721 69.776 401.113 66.848 402.553 64.544C403.993 62.24 405.241 61.088 406.297 61.088C406.777 61.088 407.785 61.376 409.321 61.952C410.857 62.432 411.625 63.104 411.625 63.968C410.569 65.6 409.273 68.096 407.737 71.456C406.201 74.816 404.857 78.464 403.705 82.4C402.553 86.24 401.977 89.744 401.977 92.912C401.977 93.68 402.073 94.88 402.265 96.512C402.457 98.048 402.889 99.44 403.561 100.688C404.329 101.936 405.481 102.56 407.017 102.56C409.225 102.56 411.577 101.168 414.073 98.384C416.569 95.6 419.065 92.096 421.561 87.872C424.057 83.648 426.409 79.376 428.617 75.056C429.385 71.12 430.009 68.24 430.489 66.416C431.065 64.592 431.641 63.44 432.217 62.96C432.793 62.384 433.513 62.096 434.377 62.096C435.625 62.096 436.633 62.384 437.401 62.96C438.169 63.44 438.553 64.208 438.553 65.264C438.553 65.552 438.457 66.08 438.265 66.848C437.593 69.152 436.921 72.08 436.249 75.632C435.673 79.088 435.193 82.688 434.809 86.432C434.425 90.176 434.233 93.68 434.233 96.944C434.233 101.648 435.289 104 437.401 104C438.841 104 440.521 103.136 442.441 101.408C444.361 99.584 446.329 97.232 448.345 94.352C450.457 91.376 452.473 88.16 454.393 84.704C456.409 81.248 458.185 77.84 459.721 74.48C459.721 69.488 460.057 65.696 460.729 63.104C461.497 60.416 462.409 58.592 463.465 57.632C464.617 56.672 465.769 56.192 466.921 56.192C468.745 56.192 470.041 56.864 470.809 58.208C471.673 59.456 472.105 60.608 472.105 61.664C472.105 62.336 471.961 63.056 471.673 63.824C471.385 64.496 471.001 65.264 470.521 66.128C469.753 67.568 468.985 69.44 468.217 71.744C467.449 73.952 467.065 77.024 467.065 80.96C467.065 82.496 467.209 84.128 467.497 85.856C467.785 87.584 468.409 89.024 469.369 90.176C470.329 91.328 471.817 91.904 473.833 91.904C475.849 91.904 477.769 91.136 479.593 89.6C481.513 87.968 483.385 85.184 485.209 81.248L487.081 82.688C484.969 87.488 482.617 90.704 480.025 92.336C477.529 93.968 475.129 94.784 472.825 94.784C466.681 94.784 462.649 90.752 460.729 82.688C458.329 87.104 455.641 91.376 452.665 95.504C449.689 99.632 446.617 102.992 443.449 105.584C440.281 108.272 437.209 109.616 434.233 109.616Z" fill="black"/>
</svg>
